cl__1 = 1.5;
cl__2 = 1e+22;
Point(17) = {0, 0, -1e-05, cl__1};
Point(18) = {0, 0, 1e-05, cl__1};
Point(19) = {1.54e-05, -3.771912141373849e-21, -9.797174393178825e-23, cl__2};
Line(25) = {17, 18};
p26 = newp;
Point(p26 + 1) = {1.521040044516512e-05, 2.409090761619556e-06, -9.797174393178825e-23};
Point(p26 + 2) = {1.464627035094537e-05, 4.75886171337419e-06, -9.797174393178825e-23};
Point(p26 + 3) = {1.372150047250087e-05, 6.99145369598902e-06, -9.797174393178825e-23};
Point(p26 + 4) = {1.245886171337419e-05, 9.051892885304087e-06, -9.797174393178825e-23};
Point(p26 + 5) = {1.088944443027283e-05, 1.088944443027283e-05, -9.797174393178825e-23};
Point(p26 + 6) = {9.051892885304087e-06, 1.245886171337419e-05, -9.797174393178825e-23};
Point(p26 + 7) = {6.991453695989021e-06, 1.372150047250087e-05, -9.797174393178825e-23};
Point(p26 + 8) = {4.758861713374191e-06, 1.464627035094537e-05, -9.797174393178825e-23};
Point(p26 + 9) = {2.409090761619557e-06, 1.521040044516512e-05, -9.797174393178825e-23};
Point(p26 + 10) = {9.429780353434621e-22, 1.54e-05, -9.797174393178825e-23};
Point(p26 + 11) = {-2.409090761619558e-06, 1.521040044516512e-05, -9.797174393178825e-23};
Point(p26 + 12) = {-4.758861713374189e-06, 1.464627035094537e-05, -9.797174393178825e-23};
Point(p26 + 13) = {-6.99145369598902e-06, 1.372150047250087e-05, -9.797174393178825e-23};
Point(p26 + 14) = {-9.051892885304085e-06, 1.245886171337419e-05, -9.797174393178825e-23};
Point(p26 + 15) = {-1.088944443027283e-05, 1.088944443027283e-05, -9.797174393178825e-23};
Point(p26 + 16) = {-1.245886171337419e-05, 9.051892885304088e-06, -9.797174393178825e-23};
Point(p26 + 17) = {-1.372150047250087e-05, 6.991453695989022e-06, -9.797174393178825e-23};
Point(p26 + 18) = {-1.464627035094537e-05, 4.758861713374192e-06, -9.797174393178825e-23};
Point(p26 + 19) = {-1.521040044516512e-05, 2.409090761619557e-06, -9.797174393178825e-23};
Point(p26 + 20) = {-1.54e-05, 1.885956070686924e-21, -9.797174393178825e-23};
Point(p26 + 21) = {-1.521040044516512e-05, -2.409090761619554e-06, -9.797174393178825e-23};
Point(p26 + 22) = {-1.464627035094537e-05, -4.758861713374195e-06, -9.797174393178825e-23};
Point(p26 + 23) = {-1.372150047250087e-05, -6.991453695989013e-06, -9.797174393178825e-23};
Point(p26 + 24) = {-1.245886171337419e-05, -9.051892885304085e-06, -9.797174393178825e-23};
Point(p26 + 25) = {-1.088944443027284e-05, -1.088944443027283e-05, -9.797174393178825e-23};
Point(p26 + 26) = {-9.051892885304088e-06, -1.245886171337419e-05, -9.797174393178825e-23};
Point(p26 + 27) = {-6.991453695989023e-06, -1.372150047250087e-05, -9.797174393178825e-23};
Point(p26 + 28) = {-4.758861713374193e-06, -1.464627035094537e-05, -9.797174393178825e-23};
Point(p26 + 29) = {-2.409090761619558e-06, -1.521040044516512e-05, -9.797174393178825e-23};
Point(p26 + 30) = {-2.828934106030386e-21, -1.54e-05, -9.797174393178825e-23};
Point(p26 + 31) = {2.409090761619553e-06, -1.521040044516512e-05, -9.797174393178825e-23};
Point(p26 + 32) = {4.758861713374188e-06, -1.464627035094537e-05, -9.797174393178825e-23};
Point(p26 + 33) = {6.991453695989019e-06, -1.372150047250087e-05, -9.797174393178825e-23};
Point(p26 + 34) = {9.051892885304083e-06, -1.245886171337419e-05, -9.797174393178825e-23};
Point(p26 + 35) = {1.088944443027283e-05, -1.088944443027284e-05, -9.797174393178825e-23};
Point(p26 + 36) = {1.245886171337419e-05, -9.05189288530409e-06, -9.797174393178825e-23};
Point(p26 + 37) = {1.372150047250087e-05, -6.991453695989024e-06, -9.797174393178825e-23};
Point(p26 + 38) = {1.464627035094537e-05, -4.758861713374194e-06, -9.797174393178825e-23};
Point(p26 + 39) = {1.521040044516512e-05, -2.409090761619559e-06, -9.797174393178825e-23};
Spline(26) = {19, p26 + 1, p26 + 2, p26 + 3, p26 + 4, p26 + 5, p26 + 6, p26 + 7, p26 + 8, p26 + 9, p26 + 10, p26 + 11, p26 + 12, p26 + 13, p26 + 14, p26 + 15, p26 + 16, p26 + 17, p26 + 18, p26 + 19, p26 + 20, p26 + 21, p26 + 22, p26 + 23, p26 + 24, p26 + 25, p26 + 26, p26 + 27, p26 + 28, p26 + 29, p26 + 30, p26 + 31, p26 + 32, p26 + 33, p26 + 34, p26 + 35, p26 + 36, p26 + 37, p26 + 38, p26 + 39, 19};
p27 = newp;
Point(p27 + 1) = {1.539507533623806e-05, -3.770705946631259e-21, 6.257378601609235e-08};
Point(p27 + 2) = {1.538042260651806e-05, -3.767117062921187e-21, 1.236067977499789e-07};
Point(p27 + 3) = {1.535640260967535e-05, -3.761233860471395e-21, 1.815961998958187e-07};
Point(p27 + 4) = {1.532360679774998e-05, -3.753201203251427e-21, 2.351141009169893e-07};
Point(p27 + 5) = {1.528284271247462e-05, -3.743216881940899e-21, 2.82842712474619e-07};
Point(p27 + 6) = {1.523511410091699e-05, -3.731526743666539e-21, 3.23606797749979e-07};
Point(p27 + 7) = {1.518159619989582e-05, -3.718418638430007e-21, 3.564026096753471e-07};
Point(p27 + 8) = {1.512360679774998e-05, -3.704215331285533e-21, 3.804226065180614e-07};
Point(p27 + 9) = {1.506257378601609e-05, -3.689266554793087e-21, 3.950753362380551e-07};
Point(p27 + 10) = {1.5e-05, -3.673940397442059e-21, 4e-07};
Point(p27 + 11) = {1.493742621398391e-05, -3.658614240091032e-21, 3.95075336238055e-07};
Point(p27 + 12) = {1.487639320225002e-05, -3.643665463598586e-21, 3.804226065180614e-07};
Point(p27 + 13) = {1.481840380010418e-05, -3.629462156454112e-21, 3.564026096753471e-07};
Point(p27 + 14) = {1.476488589908301e-05, -3.61635405121758e-21, 3.23606797749979e-07};
Point(p27 + 15) = {1.471715728752538e-05, -3.60466391294322e-21, 2.82842712474619e-07};
Point(p27 + 16) = {1.467639320225002e-05, -3.594679591632692e-21, 2.351141009169893e-07};
Point(p27 + 17) = {1.464359739032465e-05, -3.586646934412724e-21, 1.815961998958187e-07};
Point(p27 + 18) = {1.461957739348194e-05, -3.580763731962932e-21, 1.23606797749979e-07};
Point(p27 + 19) = {1.460492466376195e-05, -3.577174848252859e-21, 6.257378601609239e-08};
Point(p27 + 20) = {1.46e-05, -3.575968653510271e-21, 4.898587196589413e-23};
Point(p27 + 21) = {1.460492466376195e-05, -3.577174848252859e-21, -6.25737860160923e-08};
Point(p27 + 22) = {1.461957739348194e-05, -3.580763731962932e-21, -1.236067977499791e-07};
Point(p27 + 23) = {1.464359739032465e-05, -3.586646934412724e-21, -1.815961998958185e-07};
Point(p27 + 24) = {1.467639320225002e-05, -3.594679591632692e-21, -2.351141009169892e-07};
Point(p27 + 25) = {1.471715728752538e-05, -3.60466391294322e-21, -2.82842712474619e-07};
Point(p27 + 26) = {1.476488589908301e-05, -3.61635405121758e-21, -3.236067977499789e-07};
Point(p27 + 27) = {1.481840380010418e-05, -3.629462156454112e-21, -3.564026096753471e-07};
Point(p27 + 28) = {1.487639320225002e-05, -3.643665463598586e-21, -3.804226065180614e-07};
Point(p27 + 29) = {1.493742621398391e-05, -3.658614240091032e-21, -3.95075336238055e-07};
Point(p27 + 30) = {1.5e-05, -3.673940397442059e-21, -4e-07};
Point(p27 + 31) = {1.506257378601609e-05, -3.689266554793087e-21, -3.950753362380551e-07};
Point(p27 + 32) = {1.512360679774998e-05, -3.704215331285533e-21, -3.804226065180614e-07};
Point(p27 + 33) = {1.518159619989582e-05, -3.718418638430007e-21, -3.564026096753471e-07};
Point(p27 + 34) = {1.523511410091699e-05, -3.731526743666539e-21, -3.23606797749979e-07};
Point(p27 + 35) = {1.528284271247462e-05, -3.743216881940899e-21, -2.828427124746191e-07};
Point(p27 + 36) = {1.532360679774998e-05, -3.753201203251427e-21, -2.351141009169893e-07};
Point(p27 + 37) = {1.535640260967535e-05, -3.761233860471395e-21, -1.815961998958188e-07};
Point(p27 + 38) = {1.538042260651806e-05, -3.767117062921187e-21, -1.236067977499791e-07};
Point(p27 + 39) = {1.539507533623806e-05, -3.770705946631259e-21, -6.257378601609244e-08};
Spline(27) = {19, p27 + 1, p27 + 2, p27 + 3, p27 + 4, p27 + 5, p27 + 6, p27 + 7, p27 + 8, p27 + 9, p27 + 10, p27 + 11, p27 + 12, p27 + 13, p27 + 14, p27 + 15, p27 + 16, p27 + 17, p27 + 18, p27 + 19, p27 + 20, p27 + 21, p27 + 22, p27 + 23, p27 + 24, p27 + 25, p27 + 26, p27 + 27, p27 + 28, p27 + 29, p27 + 30, p27 + 31, p27 + 32, p27 + 33, p27 + 34, p27 + 35, p27 + 36, p27 + 37, p27 + 38, p27 + 39, 19};
Curve Loop(1) = {-26, 27, 26, -27};
Surface(1) = {1};
Surface Loop(1) = {1};
Volume(1) = {1};
Physical Curve("fone") = {25};
Physical Volume("T0_ybco") = {1};
Field[1] = PostView;
Field[1].CropNegativeValues = 1;
Field[1].IView = 0;
Field[1].UseClosest = 1;
Field[1].ViewIndex = 0;
Field[1].ViewTag = -1;
Background Field = 1;
