cl__1 = 1e+22;
Point(1) = {1.54e-05, -3.771912141373849e-21, -9.797174393178825e-23, cl__1};
p1 = newp;
Point(p1 + 1) = {1.521040044516512e-05, 2.409090761619556e-06, -9.797174393178825e-23};
Point(p1 + 2) = {1.464627035094537e-05, 4.75886171337419e-06, -9.797174393178825e-23};
Point(p1 + 3) = {1.372150047250087e-05, 6.99145369598902e-06, -9.797174393178825e-23};
Point(p1 + 4) = {1.245886171337419e-05, 9.051892885304087e-06, -9.797174393178825e-23};
Point(p1 + 5) = {1.088944443027283e-05, 1.088944443027283e-05, -9.797174393178825e-23};
Point(p1 + 6) = {9.051892885304087e-06, 1.245886171337419e-05, -9.797174393178825e-23};
Point(p1 + 7) = {6.991453695989021e-06, 1.372150047250087e-05, -9.797174393178825e-23};
Point(p1 + 8) = {4.758861713374191e-06, 1.464627035094537e-05, -9.797174393178825e-23};
Point(p1 + 9) = {2.409090761619557e-06, 1.521040044516512e-05, -9.797174393178825e-23};
Point(p1 + 10) = {9.429780353434621e-22, 1.54e-05, -9.797174393178825e-23};
Point(p1 + 11) = {-2.409090761619558e-06, 1.521040044516512e-05, -9.797174393178825e-23};
Point(p1 + 12) = {-4.758861713374189e-06, 1.464627035094537e-05, -9.797174393178825e-23};
Point(p1 + 13) = {-6.99145369598902e-06, 1.372150047250087e-05, -9.797174393178825e-23};
Point(p1 + 14) = {-9.051892885304085e-06, 1.245886171337419e-05, -9.797174393178825e-23};
Point(p1 + 15) = {-1.088944443027283e-05, 1.088944443027283e-05, -9.797174393178825e-23};
Point(p1 + 16) = {-1.245886171337419e-05, 9.051892885304088e-06, -9.797174393178825e-23};
Point(p1 + 17) = {-1.372150047250087e-05, 6.991453695989022e-06, -9.797174393178825e-23};
Point(p1 + 18) = {-1.464627035094537e-05, 4.758861713374192e-06, -9.797174393178825e-23};
Point(p1 + 19) = {-1.521040044516512e-05, 2.409090761619557e-06, -9.797174393178825e-23};
Point(p1 + 20) = {-1.54e-05, 1.885956070686924e-21, -9.797174393178825e-23};
Point(p1 + 21) = {-1.521040044516512e-05, -2.409090761619554e-06, -9.797174393178825e-23};
Point(p1 + 22) = {-1.464627035094537e-05, -4.758861713374195e-06, -9.797174393178825e-23};
Point(p1 + 23) = {-1.372150047250087e-05, -6.991453695989013e-06, -9.797174393178825e-23};
Point(p1 + 24) = {-1.245886171337419e-05, -9.051892885304085e-06, -9.797174393178825e-23};
Point(p1 + 25) = {-1.088944443027284e-05, -1.088944443027283e-05, -9.797174393178825e-23};
Point(p1 + 26) = {-9.051892885304088e-06, -1.245886171337419e-05, -9.797174393178825e-23};
Point(p1 + 27) = {-6.991453695989023e-06, -1.372150047250087e-05, -9.797174393178825e-23};
Point(p1 + 28) = {-4.758861713374193e-06, -1.464627035094537e-05, -9.797174393178825e-23};
Point(p1 + 29) = {-2.409090761619558e-06, -1.521040044516512e-05, -9.797174393178825e-23};
Point(p1 + 30) = {-2.828934106030386e-21, -1.54e-05, -9.797174393178825e-23};
Point(p1 + 31) = {2.409090761619553e-06, -1.521040044516512e-05, -9.797174393178825e-23};
Point(p1 + 32) = {4.758861713374188e-06, -1.464627035094537e-05, -9.797174393178825e-23};
Point(p1 + 33) = {6.991453695989019e-06, -1.372150047250087e-05, -9.797174393178825e-23};
Point(p1 + 34) = {9.051892885304083e-06, -1.245886171337419e-05, -9.797174393178825e-23};
Point(p1 + 35) = {1.088944443027283e-05, -1.088944443027284e-05, -9.797174393178825e-23};
Point(p1 + 36) = {1.245886171337419e-05, -9.05189288530409e-06, -9.797174393178825e-23};
Point(p1 + 37) = {1.372150047250087e-05, -6.991453695989024e-06, -9.797174393178825e-23};
Point(p1 + 38) = {1.464627035094537e-05, -4.758861713374194e-06, -9.797174393178825e-23};
Point(p1 + 39) = {1.521040044516512e-05, -2.409090761619559e-06, -9.797174393178825e-23};
Spline(1) = {1, p1 + 1, p1 + 2, p1 + 3, p1 + 4, p1 + 5, p1 + 6, p1 + 7, p1 + 8, p1 + 9, p1 + 10, p1 + 11, p1 + 12, p1 + 13, p1 + 14, p1 + 15, p1 + 16, p1 + 17, p1 + 18, p1 + 19, p1 + 20, p1 + 21, p1 + 22, p1 + 23, p1 + 24, p1 + 25, p1 + 26, p1 + 27, p1 + 28, p1 + 29, p1 + 30, p1 + 31, p1 + 32, p1 + 33, p1 + 34, p1 + 35, p1 + 36, p1 + 37, p1 + 38, p1 + 39, 1};
p2 = newp;
Point(p2 + 1) = {1.539507533623806e-05, -3.770705946631259e-21, 6.257378601609235e-08};
Point(p2 + 2) = {1.538042260651806e-05, -3.767117062921187e-21, 1.236067977499789e-07};
Point(p2 + 3) = {1.535640260967535e-05, -3.761233860471395e-21, 1.815961998958187e-07};
Point(p2 + 4) = {1.532360679774998e-05, -3.753201203251427e-21, 2.351141009169893e-07};
Point(p2 + 5) = {1.528284271247462e-05, -3.743216881940899e-21, 2.82842712474619e-07};
Point(p2 + 6) = {1.523511410091699e-05, -3.731526743666539e-21, 3.23606797749979e-07};
Point(p2 + 7) = {1.518159619989582e-05, -3.718418638430007e-21, 3.564026096753471e-07};
Point(p2 + 8) = {1.512360679774998e-05, -3.704215331285533e-21, 3.804226065180614e-07};
Point(p2 + 9) = {1.506257378601609e-05, -3.689266554793087e-21, 3.950753362380551e-07};
Point(p2 + 10) = {1.5e-05, -3.673940397442059e-21, 4e-07};
Point(p2 + 11) = {1.493742621398391e-05, -3.658614240091032e-21, 3.95075336238055e-07};
Point(p2 + 12) = {1.487639320225002e-05, -3.643665463598586e-21, 3.804226065180614e-07};
Point(p2 + 13) = {1.481840380010418e-05, -3.629462156454112e-21, 3.564026096753471e-07};
Point(p2 + 14) = {1.476488589908301e-05, -3.61635405121758e-21, 3.23606797749979e-07};
Point(p2 + 15) = {1.471715728752538e-05, -3.60466391294322e-21, 2.82842712474619e-07};
Point(p2 + 16) = {1.467639320225002e-05, -3.594679591632692e-21, 2.351141009169893e-07};
Point(p2 + 17) = {1.464359739032465e-05, -3.586646934412724e-21, 1.815961998958187e-07};
Point(p2 + 18) = {1.461957739348194e-05, -3.580763731962932e-21, 1.23606797749979e-07};
Point(p2 + 19) = {1.460492466376195e-05, -3.577174848252859e-21, 6.257378601609239e-08};
Point(p2 + 20) = {1.46e-05, -3.575968653510271e-21, 4.898587196589413e-23};
Point(p2 + 21) = {1.460492466376195e-05, -3.577174848252859e-21, -6.25737860160923e-08};
Point(p2 + 22) = {1.461957739348194e-05, -3.580763731962932e-21, -1.236067977499791e-07};
Point(p2 + 23) = {1.464359739032465e-05, -3.586646934412724e-21, -1.815961998958185e-07};
Point(p2 + 24) = {1.467639320225002e-05, -3.594679591632692e-21, -2.351141009169892e-07};
Point(p2 + 25) = {1.471715728752538e-05, -3.60466391294322e-21, -2.82842712474619e-07};
Point(p2 + 26) = {1.476488589908301e-05, -3.61635405121758e-21, -3.236067977499789e-07};
Point(p2 + 27) = {1.481840380010418e-05, -3.629462156454112e-21, -3.564026096753471e-07};
Point(p2 + 28) = {1.487639320225002e-05, -3.643665463598586e-21, -3.804226065180614e-07};
Point(p2 + 29) = {1.493742621398391e-05, -3.658614240091032e-21, -3.95075336238055e-07};
Point(p2 + 30) = {1.5e-05, -3.673940397442059e-21, -4e-07};
Point(p2 + 31) = {1.506257378601609e-05, -3.689266554793087e-21, -3.950753362380551e-07};
Point(p2 + 32) = {1.512360679774998e-05, -3.704215331285533e-21, -3.804226065180614e-07};
Point(p2 + 33) = {1.518159619989582e-05, -3.718418638430007e-21, -3.564026096753471e-07};
Point(p2 + 34) = {1.523511410091699e-05, -3.731526743666539e-21, -3.23606797749979e-07};
Point(p2 + 35) = {1.528284271247462e-05, -3.743216881940899e-21, -2.828427124746191e-07};
Point(p2 + 36) = {1.532360679774998e-05, -3.753201203251427e-21, -2.351141009169893e-07};
Point(p2 + 37) = {1.535640260967535e-05, -3.761233860471395e-21, -1.815961998958188e-07};
Point(p2 + 38) = {1.538042260651806e-05, -3.767117062921187e-21, -1.236067977499791e-07};
Point(p2 + 39) = {1.539507533623806e-05, -3.770705946631259e-21, -6.257378601609244e-08};
Spline(2) = {1, p2 + 1, p2 + 2, p2 + 3, p2 + 4, p2 + 5, p2 + 6, p2 + 7, p2 + 8, p2 + 9, p2 + 10, p2 + 11, p2 + 12, p2 + 13, p2 + 14, p2 + 15, p2 + 16, p2 + 17, p2 + 18, p2 + 19, p2 + 20, p2 + 21, p2 + 22, p2 + 23, p2 + 24, p2 + 25, p2 + 26, p2 + 27, p2 + 28, p2 + 29, p2 + 30, p2 + 31, p2 + 32, p2 + 33, p2 + 34, p2 + 35, p2 + 36, p2 + 37, p2 + 38, p2 + 39, 1};
Curve Loop(1) = {-1, 2, 1, -2};
Surface(1) = {1};
Surface Loop(1) = {1};
Volume(1) = {1};
Physical Surface("Fieldplane0") = {1};
Field[1] = PostView;
Field[1].CropNegativeValues = 1;
Field[1].IView = 0;
Field[1].UseClosest = 1;
Field[1].ViewIndex = 0;
Field[1].ViewTag = -1;
Background Field = 1;
