cl__1 = 1e+22;
cl__2 = 1.5;
Point(1) = {-5e-05, 5e-05, -2e-07, cl__1};
Point(2) = {5e-05, 5e-05, -2e-07, cl__1};
Point(3) = {5e-05, -5e-05, -2e-07, cl__1};
Point(4) = {2.5e-06, -5e-05, -2e-07, cl__1};
Point(5) = {2.5e-06, -5.01e-05, -2e-07, cl__1};
Point(6) = {-2.5e-06, -5.01e-05, -2e-07, cl__1};
Point(7) = {-2.5e-06, -5e-05, -2e-07, cl__1};
Point(8) = {-5e-05, -5e-05, -2e-07, cl__1};
Point(9) = {-0.0001, 0.0001, -2e-07, cl__1};
Point(10) = {0.0001, 0.0001, -2e-07, cl__1};
Point(11) = {0.0001, -0.0001, -2e-07, cl__1};
Point(12) = {2.5e-06, -0.0001, -2e-07, cl__1};
Point(13) = {2.5e-06, -9.99e-05, -2e-07, cl__1};
Point(14) = {-2.5e-06, -9.99e-05, -2e-07, cl__1};
Point(15) = {-2.5e-06, -0.0001, -2e-07, cl__1};
Point(16) = {-0.0001, -0.0001, -2e-07, cl__1};
Point(100) = {0, 0, -1e-05, cl__2};
Point(400) = {0, 0, 1e-05, cl__2};
Point(401) = {-0.0001, -0.0001, 2e-07, cl__1};
Point(402) = {-0.0001, 0.0001, 2e-07, cl__1};
Point(406) = {0.0001, 0.0001, 2e-07, cl__1};
Point(410) = {0.0001, -0.0001, 2e-07, cl__1};
Point(414) = {2.5e-06, -0.0001, 2e-07, cl__1};
Point(418) = {2.5e-06, -9.99e-05, 2e-07, cl__1};
Point(422) = {-2.5e-06, -9.99e-05, 2e-07, cl__1};
Point(426) = {-2.5e-06, -0.0001, 2e-07, cl__1};
Point(433) = {-5e-05, -5e-05, 2e-07, cl__1};
Point(434) = {-2.5e-06, -5e-05, 2e-07, cl__1};
Point(438) = {-2.5e-06, -5.01e-05, 2e-07, cl__1};
Point(442) = {2.5e-06, -5.01e-05, 2e-07, cl__1};
Point(446) = {2.5e-06, -5e-05, 2e-07, cl__1};
Point(450) = {5e-05, -5e-05, 2e-07, cl__1};
Point(454) = {5e-05, 5e-05, 2e-07, cl__1};
Point(458) = {-5e-05, 5e-05, 2e-07, cl__1};
Line(1) = {1, 2};
Line(2) = {2, 3};
Line(3) = {3, 4};
Line(4) = {4, 5};
Line(5) = {5, 6};
Line(6) = {6, 7};
Line(7) = {7, 8};
Line(8) = {8, 1};
Line(9) = {9, 10};
Line(10) = {10, 11};
Line(11) = {11, 12};
Line(12) = {12, 13};
Line(13) = {13, 14};
Line(14) = {14, 15};
Line(15) = {15, 16};
Line(16) = {16, 9};
Line(300) = {100, 400};
Line(302) = {401, 402};
Line(303) = {402, 406};
Line(304) = {406, 410};
Line(305) = {410, 414};
Line(306) = {414, 418};
Line(307) = {418, 422};
Line(308) = {422, 426};
Line(309) = {426, 401};
Line(310) = {433, 434};
Line(311) = {434, 438};
Line(312) = {438, 442};
Line(313) = {442, 446};
Line(314) = {446, 450};
Line(315) = {450, 454};
Line(316) = {454, 458};
Line(317) = {458, 433};
Line(319) = {16, 401};
Line(320) = {9, 402};
Line(324) = {10, 406};
Line(328) = {11, 410};
Line(332) = {12, 414};
Line(336) = {13, 418};
Line(340) = {14, 422};
Line(344) = {15, 426};
Line(351) = {8, 433};
Line(352) = {7, 434};
Line(356) = {6, 438};
Line(360) = {5, 442};
Line(364) = {4, 446};
Line(368) = {3, 450};
Line(372) = {2, 454};
Line(376) = {1, 458};
Curve Loop(1) = {16, 9, 10, 11, 12, 13, 14, 15, -7, -6, -5, -4, -3, -2, -1, -8};
Plane Surface(1) = {1};
Curve Loop(321) = {16, 320, -302, -319};
Surface(321) = {321};
Curve Loop(325) = {9, 324, -303, -320};
Surface(325) = {325};
Curve Loop(329) = {10, 328, -304, -324};
Surface(329) = {329};
Curve Loop(333) = {11, 332, -305, -328};
Surface(333) = {333};
Curve Loop(337) = {12, 336, -306, -332};
Surface(337) = {337};
Curve Loop(341) = {13, 340, -307, -336};
Surface(341) = {341};
Curve Loop(345) = {14, 344, -308, -340};
Surface(345) = {345};
Curve Loop(349) = {15, 319, -309, -344};
Surface(349) = {349};
Curve Loop(353) = {-7, 352, -310, -351};
Surface(353) = {353};
Curve Loop(357) = {-6, 356, -311, -352};
Surface(357) = {357};
Curve Loop(361) = {-5, 360, -312, -356};
Surface(361) = {361};
Curve Loop(365) = {-4, 364, -313, -360};
Surface(365) = {365};
Curve Loop(369) = {-3, 368, -314, -364};
Surface(369) = {369};
Curve Loop(373) = {-2, 372, -315, -368};
Surface(373) = {373};
Curve Loop(377) = {-1, 376, -316, -372};
Surface(377) = {377};
Curve Loop(381) = {-8, 351, -317, -376};
Surface(381) = {381};
Curve Loop(382) = {302, 303, 304, 305, 306, 307, 308, 309, 310, 311, 312, 313, 314, 315, 316, 317};
Plane Surface(382) = {382};
Surface Loop(1) = {1, 382, 321, 325, 329, 333, 337, 341, 345, 349, 353, 357, 361, 365, 369, 373, 377, 381};
Volume(1) = {1};
Physical Curve("fone") = {300};
Physical Volume("T0_ybco") = {1};
Field[1] = PostView;
Field[1].CropNegativeValues = 1;
Field[1].IView = 0;
Field[1].UseClosest = 1;
Field[1].ViewIndex = 0;
Field[1].ViewTag = -1;
Background Field = 1;
