cl__1 = 1e+22;
Point(1) = {-5e-05, 5e-05, -2e-07, cl__1};
Point(2) = {5e-05, 5e-05, -2e-07, cl__1};
Point(3) = {5e-05, -5e-05, -2e-07, cl__1};
Point(4) = {2.5e-06, -5e-05, -2e-07, cl__1};
Point(5) = {2.5e-06, -5.01e-05, -2e-07, cl__1};
Point(6) = {-2.5e-06, -5.01e-05, -2e-07, cl__1};
Point(7) = {-2.5e-06, -5e-05, -2e-07, cl__1};
Point(8) = {-5e-05, -5e-05, -2e-07, cl__1};
Point(9) = {-0.0001, 0.0001, -2e-07, cl__1};
Point(10) = {0.0001, 0.0001, -2e-07, cl__1};
Point(11) = {0.0001, -0.0001, -2e-07, cl__1};
Point(12) = {2.5e-06, -0.0001, -2e-07, cl__1};
Point(13) = {2.5e-06, -9.99e-05, -2e-07, cl__1};
Point(14) = {-2.5e-06, -9.99e-05, -2e-07, cl__1};
Point(15) = {-2.5e-06, -0.0001, -2e-07, cl__1};
Point(16) = {-0.0001, -0.0001, -2e-07, cl__1};
Point(17) = {-0.0001, -0.0001, 2e-07, cl__1};
Point(18) = {-0.0001, 0.0001, 2e-07, cl__1};
Point(22) = {0.0001, 0.0001, 2e-07, cl__1};
Point(26) = {0.0001, -0.0001, 2e-07, cl__1};
Point(30) = {2.5e-06, -0.0001, 2e-07, cl__1};
Point(34) = {2.5e-06, -9.99e-05, 2e-07, cl__1};
Point(38) = {-2.5e-06, -9.99e-05, 2e-07, cl__1};
Point(42) = {-2.5e-06, -0.0001, 2e-07, cl__1};
Point(49) = {-5e-05, -5e-05, 2e-07, cl__1};
Point(50) = {-2.5e-06, -5e-05, 2e-07, cl__1};
Point(54) = {-2.5e-06, -5.01e-05, 2e-07, cl__1};
Point(58) = {2.5e-06, -5.01e-05, 2e-07, cl__1};
Point(62) = {2.5e-06, -5e-05, 2e-07, cl__1};
Point(66) = {5e-05, -5e-05, 2e-07, cl__1};
Point(70) = {5e-05, 5e-05, 2e-07, cl__1};
Point(74) = {-5e-05, 5e-05, 2e-07, cl__1};
Line(1) = {1, 2};
Line(2) = {2, 3};
Line(3) = {3, 4};
Line(4) = {4, 5};
Line(5) = {5, 6};
Line(6) = {6, 7};
Line(7) = {7, 8};
Line(8) = {8, 1};
Line(9) = {9, 10};
Line(10) = {10, 11};
Line(11) = {11, 12};
Line(12) = {12, 13};
Line(13) = {13, 14};
Line(14) = {14, 15};
Line(15) = {15, 16};
Line(16) = {16, 9};
Line(18) = {17, 18};
Line(19) = {18, 22};
Line(20) = {22, 26};
Line(21) = {26, 30};
Line(22) = {30, 34};
Line(23) = {34, 38};
Line(24) = {38, 42};
Line(25) = {42, 17};
Line(26) = {49, 50};
Line(27) = {50, 54};
Line(28) = {54, 58};
Line(29) = {58, 62};
Line(30) = {62, 66};
Line(31) = {66, 70};
Line(32) = {70, 74};
Line(33) = {74, 49};
Line(35) = {16, 17};
Line(36) = {9, 18};
Line(40) = {10, 22};
Line(44) = {11, 26};
Line(48) = {12, 30};
Line(52) = {13, 34};
Line(56) = {14, 38};
Line(60) = {15, 42};
Line(67) = {8, 49};
Line(68) = {7, 50};
Line(72) = {6, 54};
Line(76) = {5, 58};
Line(80) = {4, 62};
Line(84) = {3, 66};
Line(88) = {2, 70};
Line(92) = {1, 74};
Curve Loop(1) = {16, 9, 10, 11, 12, 13, 14, 15, -7, -6, -5, -4, -3, -2, -1, -8};
Plane Surface(1) = {1};
Curve Loop(37) = {16, 36, -18, -35};
Surface(37) = {37};
Curve Loop(41) = {9, 40, -19, -36};
Surface(41) = {41};
Curve Loop(45) = {10, 44, -20, -40};
Surface(45) = {45};
Curve Loop(49) = {11, 48, -21, -44};
Surface(49) = {49};
Curve Loop(53) = {12, 52, -22, -48};
Surface(53) = {53};
Curve Loop(57) = {13, 56, -23, -52};
Surface(57) = {57};
Curve Loop(61) = {14, 60, -24, -56};
Surface(61) = {61};
Curve Loop(65) = {15, 35, -25, -60};
Surface(65) = {65};
Curve Loop(69) = {-7, 68, -26, -67};
Surface(69) = {69};
Curve Loop(73) = {-6, 72, -27, -68};
Surface(73) = {73};
Curve Loop(77) = {-5, 76, -28, -72};
Surface(77) = {77};
Curve Loop(81) = {-4, 80, -29, -76};
Surface(81) = {81};
Curve Loop(85) = {-3, 84, -30, -80};
Surface(85) = {85};
Curve Loop(89) = {-2, 88, -31, -84};
Surface(89) = {89};
Curve Loop(93) = {-1, 92, -32, -88};
Surface(93) = {93};
Curve Loop(97) = {-8, 67, -33, -92};
Surface(97) = {97};
Curve Loop(98) = {18, 19, 20, 21, 22, 23, 24, 25, 26, 27, 28, 29, 30, 31, 32, 33};
Plane Surface(98) = {98};
Surface Loop(1) = {1, 98, 37, 41, 45, 49, 53, 57, 61, 65, 69, 73, 77, 81, 85, 89, 93, 97};
Volume(1) = {1};
Physical Surface("FieldPlane0") = {1, 37, 41, 45, 49, 53, 57, 61, 65, 69, 73, 77, 81, 85, 89, 93, 97, 98};
Field[1] = PostView;
Field[1].CropNegativeValues = 1;
Field[1].IView = 0;
Field[1].UseClosest = 1;
Field[1].ViewIndex = 0;
Field[1].ViewTag = -1;
Background Field = 1;
