cl__1 = 1e+22;
cl__2 = 1.5;
Point(1) = {-5e-05, -5e-05, -2e-07, cl__1};
Point(2) = {5e-05, -5e-05, -2e-07, cl__1};
Point(3) = {-5e-05, 5e-05, -2e-07, cl__1};
Point(4) = {5e-05, 5e-05, -2e-07, cl__1};
Point(5) = {-4.900000000000001e-05, -4.900000000000001e-05, -2e-07, cl__1};
Point(6) = {4.900000000000001e-05, -4.900000000000001e-05, -2e-07, cl__1};
Point(7) = {4.900000000000001e-05, 4.900000000000001e-05, -2e-07, cl__1};
Point(8) = {-4.900000000000001e-05, 4.900000000000001e-05, -2e-07, cl__1};
Point(9) = {-5e-05, -5e-05, 2e-07, cl__1};
Point(10) = {5e-05, -5e-05, 2e-07, cl__1};
Point(11) = {-5e-05, 5e-05, 2e-07, cl__1};
Point(12) = {5e-05, 5e-05, 2e-07, cl__1};
Point(13) = {-4.900000000000001e-05, -4.900000000000001e-05, 2e-07, cl__1};
Point(14) = {4.900000000000001e-05, -4.900000000000001e-05, 2e-07, cl__1};
Point(15) = {4.900000000000001e-05, 4.900000000000001e-05, 2e-07, cl__1};
Point(16) = {-4.900000000000001e-05, 4.900000000000001e-05, 2e-07, cl__1};
Point(100) = {0, 0, -1e-05, cl__2};
Point(400) = {0, 0, 1e-05, cl__2};
Line(1) = {1, 2};
Line(2) = {3, 1};
Line(3) = {2, 4};
Line(4) = {4, 3};
Line(5) = {5, 6};
Line(6) = {6, 7};
Line(7) = {7, 8};
Line(8) = {8, 5};
Line(9) = {1, 9};
Line(10) = {2, 10};
Line(11) = {9, 10};
Line(12) = {3, 11};
Line(13) = {11, 9};
Line(14) = {4, 12};
Line(15) = {10, 12};
Line(16) = {12, 11};
Line(17) = {5, 13};
Line(18) = {6, 14};
Line(19) = {13, 14};
Line(20) = {7, 15};
Line(21) = {14, 15};
Line(22) = {8, 16};
Line(23) = {15, 16};
Line(24) = {16, 13};
Line(300) = {100, 400};
Curve Loop(4) = {1, 3, 4, 2, -5, -8, -7, -6};
Plane Surface(4) = {4};
Curve Loop(5) = {9, 11, -10, -1};
Plane Surface(5) = {5};
Curve Loop(6) = {12, 13, -9, -2};
Plane Surface(6) = {6};
Curve Loop(7) = {10, 15, -14, -3};
Plane Surface(7) = {7};
Curve Loop(8) = {14, 16, -12, -4};
Plane Surface(8) = {8};
Curve Loop(9) = {17, 19, -18, -5};
Plane Surface(9) = {9};
Curve Loop(10) = {18, 21, -20, -6};
Plane Surface(10) = {10};
Curve Loop(11) = {20, 23, -22, -7};
Plane Surface(11) = {11};
Curve Loop(12) = {22, 24, -17, -8};
Plane Surface(12) = {12};
Curve Loop(13) = {11, 15, 16, 13, -19, -24, -23, -21};
Plane Surface(13) = {13};
Surface Loop(1) = {5, 6, 7, 8, 9, 10, 11, 12, 4, 13};
Volume(1) = {1};
Physical Curve("fone") = {300};
Physical Volume("T0_ybco") = {1};
Field[1] = PostView;
Field[1].CropNegativeValues = 1;
Field[1].IView = 0;
Field[1].UseClosest = 1;
Field[1].ViewIndex = 0;
Field[1].ViewTag = -1;
Background Field = 1;
