cl__1 = 1e+22;
cl__2 = 1.5;
Point(1) = {-0.0005, -0.0005, -2e-07, cl__1};
Point(2) = {0.0005, -0.0005, -2e-07, cl__1};
Point(3) = {-0.0005, 0.0005, -2e-07, cl__1};
Point(4) = {0.0005, 0.0005, -2e-07, cl__1};
Point(5) = {7.500000000000003e-05, 7.500000000000003e-05, -2e-07, cl__1};
Point(6) = {-7.500000000000003e-05, 7.500000000000003e-05, -2e-07, cl__1};
Point(7) = {-7.500000000000003e-05, 5e-06, -2e-07, cl__1};
Point(8) = {-0.000405, 5e-06, -2e-07, cl__1};
Point(9) = {-0.000405, -5e-06, -2e-07, cl__1};
Point(10) = {-7.500000000000003e-05, -5e-06, -2e-07, cl__1};
Point(11) = {-7.500000000000003e-05, -7.500000000000003e-05, -2e-07, cl__1};
Point(12) = {7.500000000000003e-05, -7.500000000000003e-05, -2e-07, cl__1};
Point(13) = {7.500000000000003e-05, -5e-06, -2e-07, cl__1};
Point(14) = {0.000405, -5e-06, -2e-07, cl__1};
Point(15) = {0.000405, 5e-06, -2e-07, cl__1};
Point(16) = {7.500000000000003e-05, 5e-06, -2e-07, cl__1};
Point(17) = {-0.0005, -0.0005, 2e-07, cl__1};
Point(18) = {0.0005, -0.0005, 2e-07, cl__1};
Point(19) = {-0.0005, 0.0005, 2e-07, cl__1};
Point(20) = {0.0005, 0.0005, 2e-07, cl__1};
Point(21) = {7.500000000000003e-05, 7.500000000000003e-05, 2e-07, cl__1};
Point(22) = {-7.500000000000003e-05, 7.500000000000003e-05, 2e-07, cl__1};
Point(23) = {-7.500000000000003e-05, 5e-06, 2e-07, cl__1};
Point(24) = {-0.000405, 5e-06, 2e-07, cl__1};
Point(25) = {-0.000405, -5e-06, 2e-07, cl__1};
Point(26) = {-7.500000000000003e-05, -5e-06, 2e-07, cl__1};
Point(27) = {-7.500000000000003e-05, -7.500000000000003e-05, 2e-07, cl__1};
Point(28) = {7.500000000000003e-05, -7.500000000000003e-05, 2e-07, cl__1};
Point(29) = {7.500000000000003e-05, -5e-06, 2e-07, cl__1};
Point(30) = {0.000405, -5e-06, 2e-07, cl__1};
Point(31) = {0.000405, 5e-06, 2e-07, cl__1};
Point(32) = {7.500000000000003e-05, 5e-06, 2e-07, cl__1};
Point(100) = {0, 0, -1e-05, cl__2};
Point(400) = {0, 0, 1e-05, cl__2};
Line(1) = {1, 2};
Line(2) = {3, 1};
Line(3) = {2, 4};
Line(4) = {4, 3};
Line(5) = {5, 6};
Line(6) = {6, 7};
Line(7) = {7, 8};
Line(8) = {8, 9};
Line(9) = {9, 10};
Line(10) = {10, 11};
Line(11) = {11, 12};
Line(12) = {12, 13};
Line(13) = {13, 14};
Line(14) = {14, 15};
Line(15) = {15, 16};
Line(16) = {16, 5};
Line(17) = {1, 17};
Line(18) = {2, 18};
Line(19) = {17, 18};
Line(20) = {3, 19};
Line(21) = {19, 17};
Line(22) = {4, 20};
Line(23) = {18, 20};
Line(24) = {20, 19};
Line(25) = {5, 21};
Line(26) = {6, 22};
Line(27) = {21, 22};
Line(28) = {7, 23};
Line(29) = {22, 23};
Line(30) = {8, 24};
Line(31) = {23, 24};
Line(32) = {9, 25};
Line(33) = {24, 25};
Line(34) = {10, 26};
Line(35) = {25, 26};
Line(36) = {11, 27};
Line(37) = {26, 27};
Line(38) = {12, 28};
Line(39) = {27, 28};
Line(40) = {13, 29};
Line(41) = {28, 29};
Line(42) = {14, 30};
Line(43) = {29, 30};
Line(44) = {15, 31};
Line(45) = {30, 31};
Line(46) = {16, 32};
Line(47) = {31, 32};
Line(48) = {32, 21};
Line(300) = {100, 400};
Curve Loop(4) = {1, 3, 4, 2, -5, -16, -15, -14, -13, -12, -11, -10, -9, -8, -7, -6};
Plane Surface(4) = {4};
Curve Loop(5) = {17, 19, -18, -1};
Plane Surface(5) = {5};
Curve Loop(6) = {20, 21, -17, -2};
Plane Surface(6) = {6};
Curve Loop(7) = {18, 23, -22, -3};
Plane Surface(7) = {7};
Curve Loop(8) = {22, 24, -20, -4};
Plane Surface(8) = {8};
Curve Loop(9) = {25, 27, -26, -5};
Plane Surface(9) = {9};
Curve Loop(10) = {26, 29, -28, -6};
Plane Surface(10) = {10};
Curve Loop(11) = {28, 31, -30, -7};
Plane Surface(11) = {11};
Curve Loop(12) = {30, 33, -32, -8};
Plane Surface(12) = {12};
Curve Loop(13) = {32, 35, -34, -9};
Plane Surface(13) = {13};
Curve Loop(14) = {34, 37, -36, -10};
Plane Surface(14) = {14};
Curve Loop(15) = {36, 39, -38, -11};
Plane Surface(15) = {15};
Curve Loop(16) = {38, 41, -40, -12};
Plane Surface(16) = {16};
Curve Loop(17) = {40, 43, -42, -13};
Plane Surface(17) = {17};
Curve Loop(18) = {42, 45, -44, -14};
Plane Surface(18) = {18};
Curve Loop(19) = {44, 47, -46, -15};
Plane Surface(19) = {19};
Curve Loop(20) = {46, 48, -25, -16};
Plane Surface(20) = {20};
Curve Loop(21) = {19, 23, 24, 21, -27, -48, -47, -45, -43, -41, -39, -37, -35, -33, -31, -29};
Plane Surface(21) = {21};
Curve Loop(22) = {17, 19, -18, -1};
Plane Surface(22) = {22};
Curve Loop(23) = {20, 21, -17, -2};
Plane Surface(23) = {23};
Curve Loop(24) = {22, 24, -20, -4};
Plane Surface(24) = {24};
Curve Loop(25) = {18, 23, -22, -3};
Plane Surface(25) = {25};
Curve Loop(26) = {25, 27, -26, -5};
Plane Surface(26) = {26};
Curve Loop(27) = {46, 48, -25, -16};
Plane Surface(27) = {27};
Curve Loop(28) = {44, 47, -46, -15};
Plane Surface(28) = {28};
Curve Loop(29) = {42, 45, -44, -14};
Plane Surface(29) = {29};
Curve Loop(30) = {40, 43, -42, -13};
Plane Surface(30) = {30};
Curve Loop(31) = {38, 41, -40, -12};
Plane Surface(31) = {31};
Curve Loop(32) = {36, 39, -38, -11};
Plane Surface(32) = {32};
Curve Loop(33) = {34, 37, -36, -10};
Plane Surface(33) = {33};
Curve Loop(34) = {32, 35, -34, -9};
Plane Surface(34) = {34};
Curve Loop(35) = {30, 33, -32, -8};
Plane Surface(35) = {35};
Curve Loop(36) = {28, 31, -30, -7};
Plane Surface(36) = {36};
Curve Loop(37) = {26, 29, -28, -6};
Plane Surface(37) = {37};
Surface Loop(1) = {5, 6, 7, 8, 9, 10, 11, 12, 13, 14, 15, 16, 17, 18, 19, 20, 4, 21};
Volume(1) = {1};
Physical Curve("fone") = {300};
Physical Volume("T0_ybco") = {1};
Field[1] = PostView;
Field[1].CropNegativeValues = 1;
Field[1].IView = 0;
Field[1].UseClosest = 1;
Field[1].ViewIndex = 0;
Field[1].ViewTag = -1;
Background Field = 1;
