cl__1 = 1e+22;
cl__2 = 1.5;
Point(1) = {-8.000000000000001e-06, 8.000000000000001e-06, -1e-07, cl__1};
Point(2) = {8.000000000000001e-06, 8.000000000000001e-06, -1e-07, cl__1};
Point(3) = {8.000000000000001e-06, -8.000000000000001e-06, -1e-07, cl__1};
Point(4) = {-8.000000000000001e-06, -8.000000000000001e-06, -1e-07, cl__1};
Point(9) = {-2e-05, 2e-05, -1e-07, cl__1};
Point(10) = {2e-05, 2e-05, -1e-07, cl__1};
Point(11) = {2e-05, -2e-05, -1e-07, cl__1};
Point(12) = {-2e-05, -2e-05, -1e-07, cl__1};
Point(100) = {0, 0, -1e-05, cl__2};
Point(400) = {0, 0, 1e-05, cl__2};
Point(401) = {-2e-05, -2e-05, 1e-07, cl__1};
Point(402) = {-2e-05, 2e-05, 1e-07, cl__1};
Point(406) = {2e-05, 2e-05, 1e-07, cl__1};
Point(410) = {2e-05, -2e-05, 1e-07, cl__1};
Point(417) = {-8.000000000000001e-06, -8.000000000000001e-06, 1e-07, cl__1};
Point(418) = {8.000000000000001e-06, -8.000000000000001e-06, 1e-07, cl__1};
Point(422) = {8.000000000000001e-06, 8.000000000000001e-06, 1e-07, cl__1};
Point(426) = {-8.000000000000001e-06, 8.000000000000001e-06, 1e-07, cl__1};
Line(1) = {1, 2};
Line(2) = {2, 3};
Line(3) = {3, 4};
Line(4) = {4, 1};
Line(9) = {9, 10};
Line(10) = {10, 11};
Line(11) = {11, 12};
Line(12) = {12, 9};
Line(300) = {100, 400};
Line(302) = {401, 402};
Line(303) = {402, 406};
Line(304) = {406, 410};
Line(305) = {410, 401};
Line(306) = {417, 418};
Line(307) = {418, 422};
Line(308) = {422, 426};
Line(309) = {426, 417};
Line(311) = {12, 401};
Line(312) = {9, 402};
Line(316) = {10, 406};
Line(320) = {11, 410};
Line(327) = {4, 417};
Line(328) = {3, 418};
Line(332) = {2, 422};
Line(336) = {1, 426};
Curve Loop(1) = {12, 9, 10, 11, -3, -2, -1, -4};
Plane Surface(1) = {1};
Curve Loop(313) = {12, 312, -302, -311};
Surface(313) = {313};
Curve Loop(317) = {9, 316, -303, -312};
Surface(317) = {317};
Curve Loop(321) = {10, 320, -304, -316};
Surface(321) = {321};
Curve Loop(325) = {11, 311, -305, -320};
Surface(325) = {325};
Curve Loop(329) = {-3, 328, -306, -327};
Surface(329) = {329};
Curve Loop(333) = {-2, 332, -307, -328};
Surface(333) = {333};
Curve Loop(337) = {-1, 336, -308, -332};
Surface(337) = {337};
Curve Loop(341) = {-4, 327, -309, -336};
Surface(341) = {341};
Curve Loop(342) = {302, 303, 304, 305, 306, 307, 308, 309};
Plane Surface(342) = {342};
Surface Loop(1) = {1, 342, 313, 317, 321, 325, 329, 333, 337, 341};
Volume(1) = {1};
Physical Curve("fone") = {300};
Physical Volume("T0_ybco") = {1};
Field[1] = PostView;
Field[1].CropNegativeValues = 1;
Field[1].IView = 0;
Field[1].UseClosest = 1;
Field[1].ViewIndex = 0;
Field[1].ViewTag = -1;
Background Field = 1;
