cl__1 = 1e+22;
Point(1) = {1.5e-05, 0, 0, cl__1};
Point(2) = {1.3e-05, 0, 0, cl__1};
Point(3) = {1.5e-05, 0, 2e-07, cl__1};
Point(4) = {1.3e-05, 0, 2e-07, cl__1};
p1 = newp;
Point(p1 + 1) = {1.481532510892707e-05, 2.346516975603463e-06, 0};
Point(p1 + 2) = {1.42658477444273e-05, 4.635254915624211e-06, 0};
Point(p1 + 3) = {1.336509786282552e-05, 6.809857496093201e-06, 0};
Point(p1 + 4) = {1.213525491562421e-05, 8.816778784387097e-06, 0};
Point(p1 + 5) = {1.060660171779821e-05, 1.060660171779821e-05, 0};
Point(p1 + 6) = {8.816778784387097e-06, 1.213525491562421e-05, 0};
Point(p1 + 7) = {6.809857496093202e-06, 1.336509786282552e-05, 0};
Point(p1 + 8) = {4.635254915624212e-06, 1.42658477444273e-05, 0};
Point(p1 + 9) = {2.346516975603464e-06, 1.481532510892707e-05, 0};
Point(p1 + 10) = {9.184850993605149e-22, 1.5e-05, 0};
Point(p1 + 11) = {-2.346516975603465e-06, 1.481532510892707e-05, 0};
Point(p1 + 12) = {-4.63525491562421e-06, 1.42658477444273e-05, 0};
Point(p1 + 13) = {-6.809857496093201e-06, 1.336509786282552e-05, 0};
Point(p1 + 14) = {-8.816778784387095e-06, 1.213525491562421e-05, 0};
Point(p1 + 15) = {-1.060660171779821e-05, 1.060660171779821e-05, 0};
Point(p1 + 16) = {-1.213525491562421e-05, 8.816778784387098e-06, 0};
Point(p1 + 17) = {-1.336509786282552e-05, 6.809857496093203e-06, 0};
Point(p1 + 18) = {-1.42658477444273e-05, 4.635254915624213e-06, 0};
Point(p1 + 19) = {-1.481532510892707e-05, 2.346516975603465e-06, 0};
Point(p1 + 20) = {-1.5e-05, 1.83697019872103e-21, 0};
Point(p1 + 21) = {-1.481532510892707e-05, -2.346516975603461e-06, 0};
Point(p1 + 22) = {-1.42658477444273e-05, -4.635254915624216e-06, 0};
Point(p1 + 23) = {-1.336509786282552e-05, -6.809857496093194e-06, 0};
Point(p1 + 24) = {-1.213525491562421e-05, -8.816778784387095e-06, 0};
Point(p1 + 25) = {-1.060660171779822e-05, -1.060660171779821e-05, 0};
Point(p1 + 26) = {-8.816778784387098e-06, -1.213525491562421e-05, 0};
Point(p1 + 27) = {-6.809857496093204e-06, -1.336509786282552e-05, 0};
Point(p1 + 28) = {-4.635254915624214e-06, -1.42658477444273e-05, 0};
Point(p1 + 29) = {-2.346516975603465e-06, -1.481532510892707e-05, 0};
Point(p1 + 30) = {-2.755455298081545e-21, -1.5e-05, 0};
Point(p1 + 31) = {2.34651697560346e-06, -1.481532510892707e-05, 0};
Point(p1 + 32) = {4.635254915624209e-06, -1.42658477444273e-05, 0};
Point(p1 + 33) = {6.8098574960932e-06, -1.336509786282552e-05, 0};
Point(p1 + 34) = {8.816778784387093e-06, -1.213525491562421e-05, 0};
Point(p1 + 35) = {1.060660171779821e-05, -1.060660171779822e-05, 0};
Point(p1 + 36) = {1.213525491562421e-05, -8.8167787843871e-06, 0};
Point(p1 + 37) = {1.336509786282552e-05, -6.809857496093205e-06, 0};
Point(p1 + 38) = {1.42658477444273e-05, -4.635254915624215e-06, 0};
Point(p1 + 39) = {1.481532510892707e-05, -2.346516975603467e-06, 0};
Spline(1) = {1, p1 + 1, p1 + 2, p1 + 3, p1 + 4, p1 + 5, p1 + 6, p1 + 7, p1 + 8, p1 + 9, p1 + 10, p1 + 11, p1 + 12, p1 + 13, p1 + 14, p1 + 15, p1 + 16, p1 + 17, p1 + 18, p1 + 19, p1 + 20, p1 + 21, p1 + 22, p1 + 23, p1 + 24, p1 + 25, p1 + 26, p1 + 27, p1 + 28, p1 + 29, p1 + 30, p1 + 31, p1 + 32, p1 + 33, p1 + 34, p1 + 35, p1 + 36, p1 + 37, p1 + 38, p1 + 39, 1};
p2 = newp;
Point(p2 + 1) = {1.283994842773679e-05, 2.033648045523001e-06, 0};
Point(p2 + 2) = {1.2363734711837e-05, 4.017220926874316e-06, 0};
Point(p2 + 3) = {1.158308481444878e-05, 5.901876496614108e-06, 0};
Point(p2 + 4) = {1.051722092687432e-05, 7.641208279802151e-06, 0};
Point(p2 + 5) = {9.192388155425119e-06, 9.192388155425117e-06, 0};
Point(p2 + 6) = {7.641208279802151e-06, 1.051722092687432e-05, 0};
Point(p2 + 7) = {5.901876496614109e-06, 1.158308481444878e-05, 0};
Point(p2 + 8) = {4.017220926874317e-06, 1.2363734711837e-05, 0};
Point(p2 + 9) = {2.033648045523002e-06, 1.283994842773679e-05, 0};
Point(p2 + 10) = {7.960204194457796e-22, 1.3e-05, 0};
Point(p2 + 11) = {-2.033648045523003e-06, 1.283994842773679e-05, 0};
Point(p2 + 12) = {-4.017220926874316e-06, 1.2363734711837e-05, 0};
Point(p2 + 13) = {-5.901876496614108e-06, 1.158308481444878e-05, 0};
Point(p2 + 14) = {-7.641208279802149e-06, 1.051722092687432e-05, 0};
Point(p2 + 15) = {-9.192388155425117e-06, 9.192388155425119e-06, 0};
Point(p2 + 16) = {-1.051722092687432e-05, 7.641208279802153e-06, 0};
Point(p2 + 17) = {-1.158308481444878e-05, 5.90187649661411e-06, 0};
Point(p2 + 18) = {-1.2363734711837e-05, 4.017220926874318e-06, 0};
Point(p2 + 19) = {-1.283994842773679e-05, 2.033648045523003e-06, 0};
Point(p2 + 20) = {-1.3e-05, 1.592040838891559e-21, 0};
Point(p2 + 21) = {-1.283994842773679e-05, -2.033648045523e-06, 0};
Point(p2 + 22) = {-1.2363734711837e-05, -4.017220926874321e-06, 0};
Point(p2 + 23) = {-1.158308481444879e-05, -5.901876496614102e-06, 0};
Point(p2 + 24) = {-1.051722092687432e-05, -7.641208279802149e-06, 0};
Point(p2 + 25) = {-9.192388155425121e-06, -9.192388155425117e-06, 0};
Point(p2 + 26) = {-7.641208279802153e-06, -1.051722092687432e-05, 0};
Point(p2 + 27) = {-5.90187649661411e-06, -1.158308481444878e-05, 0};
Point(p2 + 28) = {-4.017220926874319e-06, -1.2363734711837e-05, 0};
Point(p2 + 29) = {-2.033648045523003e-06, -1.283994842773679e-05, 0};
Point(p2 + 30) = {-2.388061258337339e-21, -1.3e-05, 0};
Point(p2 + 31) = {2.033648045522999e-06, -1.283994842773679e-05, 0};
Point(p2 + 32) = {4.017220926874314e-06, -1.2363734711837e-05, 0};
Point(p2 + 33) = {5.901876496614107e-06, -1.158308481444878e-05, 0};
Point(p2 + 34) = {7.641208279802148e-06, -1.051722092687432e-05, 0};
Point(p2 + 35) = {9.192388155425115e-06, -9.192388155425121e-06, 0};
Point(p2 + 36) = {1.051722092687432e-05, -7.641208279802154e-06, 0};
Point(p2 + 37) = {1.158308481444878e-05, -5.901876496614111e-06, 0};
Point(p2 + 38) = {1.2363734711837e-05, -4.01722092687432e-06, 0};
Point(p2 + 39) = {1.283994842773679e-05, -2.033648045523005e-06, 0};
Spline(2) = {2, p2 + 1, p2 + 2, p2 + 3, p2 + 4, p2 + 5, p2 + 6, p2 + 7, p2 + 8, p2 + 9, p2 + 10, p2 + 11, p2 + 12, p2 + 13, p2 + 14, p2 + 15, p2 + 16, p2 + 17, p2 + 18, p2 + 19, p2 + 20, p2 + 21, p2 + 22, p2 + 23, p2 + 24, p2 + 25, p2 + 26, p2 + 27, p2 + 28, p2 + 29, p2 + 30, p2 + 31, p2 + 32, p2 + 33, p2 + 34, p2 + 35, p2 + 36, p2 + 37, p2 + 38, p2 + 39, 2};
Line(3) = {1, 3};
p4 = newp;
Point(p4 + 1) = {1.481532510892707e-05, 2.346516975603463e-06, 2e-07};
Point(p4 + 2) = {1.42658477444273e-05, 4.635254915624211e-06, 2e-07};
Point(p4 + 3) = {1.336509786282552e-05, 6.809857496093201e-06, 2e-07};
Point(p4 + 4) = {1.213525491562421e-05, 8.816778784387097e-06, 2e-07};
Point(p4 + 5) = {1.060660171779821e-05, 1.060660171779821e-05, 2e-07};
Point(p4 + 6) = {8.816778784387097e-06, 1.213525491562421e-05, 2e-07};
Point(p4 + 7) = {6.809857496093202e-06, 1.336509786282552e-05, 2e-07};
Point(p4 + 8) = {4.635254915624212e-06, 1.42658477444273e-05, 2e-07};
Point(p4 + 9) = {2.346516975603464e-06, 1.481532510892707e-05, 2e-07};
Point(p4 + 10) = {9.184850993605149e-22, 1.5e-05, 2e-07};
Point(p4 + 11) = {-2.346516975603465e-06, 1.481532510892707e-05, 2e-07};
Point(p4 + 12) = {-4.63525491562421e-06, 1.42658477444273e-05, 2e-07};
Point(p4 + 13) = {-6.809857496093201e-06, 1.336509786282552e-05, 2e-07};
Point(p4 + 14) = {-8.816778784387095e-06, 1.213525491562421e-05, 2e-07};
Point(p4 + 15) = {-1.060660171779821e-05, 1.060660171779821e-05, 2e-07};
Point(p4 + 16) = {-1.213525491562421e-05, 8.816778784387098e-06, 2e-07};
Point(p4 + 17) = {-1.336509786282552e-05, 6.809857496093203e-06, 2e-07};
Point(p4 + 18) = {-1.42658477444273e-05, 4.635254915624213e-06, 2e-07};
Point(p4 + 19) = {-1.481532510892707e-05, 2.346516975603465e-06, 2e-07};
Point(p4 + 20) = {-1.5e-05, 1.83697019872103e-21, 2e-07};
Point(p4 + 21) = {-1.481532510892707e-05, -2.346516975603461e-06, 2e-07};
Point(p4 + 22) = {-1.42658477444273e-05, -4.635254915624216e-06, 2e-07};
Point(p4 + 23) = {-1.336509786282552e-05, -6.809857496093194e-06, 2e-07};
Point(p4 + 24) = {-1.213525491562421e-05, -8.816778784387095e-06, 2e-07};
Point(p4 + 25) = {-1.060660171779822e-05, -1.060660171779821e-05, 2e-07};
Point(p4 + 26) = {-8.816778784387098e-06, -1.213525491562421e-05, 2e-07};
Point(p4 + 27) = {-6.809857496093204e-06, -1.336509786282552e-05, 2e-07};
Point(p4 + 28) = {-4.635254915624214e-06, -1.42658477444273e-05, 2e-07};
Point(p4 + 29) = {-2.346516975603465e-06, -1.481532510892707e-05, 2e-07};
Point(p4 + 30) = {-2.755455298081545e-21, -1.5e-05, 2e-07};
Point(p4 + 31) = {2.34651697560346e-06, -1.481532510892707e-05, 2e-07};
Point(p4 + 32) = {4.635254915624209e-06, -1.42658477444273e-05, 2e-07};
Point(p4 + 33) = {6.8098574960932e-06, -1.336509786282552e-05, 2e-07};
Point(p4 + 34) = {8.816778784387093e-06, -1.213525491562421e-05, 2e-07};
Point(p4 + 35) = {1.060660171779821e-05, -1.060660171779822e-05, 2e-07};
Point(p4 + 36) = {1.213525491562421e-05, -8.8167787843871e-06, 2e-07};
Point(p4 + 37) = {1.336509786282552e-05, -6.809857496093205e-06, 2e-07};
Point(p4 + 38) = {1.42658477444273e-05, -4.635254915624215e-06, 2e-07};
Point(p4 + 39) = {1.481532510892707e-05, -2.346516975603467e-06, 2e-07};
Spline(4) = {3, p4 + 1, p4 + 2, p4 + 3, p4 + 4, p4 + 5, p4 + 6, p4 + 7, p4 + 8, p4 + 9, p4 + 10, p4 + 11, p4 + 12, p4 + 13, p4 + 14, p4 + 15, p4 + 16, p4 + 17, p4 + 18, p4 + 19, p4 + 20, p4 + 21, p4 + 22, p4 + 23, p4 + 24, p4 + 25, p4 + 26, p4 + 27, p4 + 28, p4 + 29, p4 + 30, p4 + 31, p4 + 32, p4 + 33, p4 + 34, p4 + 35, p4 + 36, p4 + 37, p4 + 38, p4 + 39, 3};
Line(5) = {2, 4};
p6 = newp;
Point(p6 + 1) = {1.283994842773679e-05, 2.033648045523001e-06, 2e-07};
Point(p6 + 2) = {1.2363734711837e-05, 4.017220926874316e-06, 2e-07};
Point(p6 + 3) = {1.158308481444878e-05, 5.901876496614108e-06, 2e-07};
Point(p6 + 4) = {1.051722092687432e-05, 7.641208279802151e-06, 2e-07};
Point(p6 + 5) = {9.192388155425119e-06, 9.192388155425117e-06, 2e-07};
Point(p6 + 6) = {7.641208279802151e-06, 1.051722092687432e-05, 2e-07};
Point(p6 + 7) = {5.901876496614109e-06, 1.158308481444878e-05, 2e-07};
Point(p6 + 8) = {4.017220926874317e-06, 1.2363734711837e-05, 2e-07};
Point(p6 + 9) = {2.033648045523002e-06, 1.283994842773679e-05, 2e-07};
Point(p6 + 10) = {7.960204194457796e-22, 1.3e-05, 2e-07};
Point(p6 + 11) = {-2.033648045523003e-06, 1.283994842773679e-05, 2e-07};
Point(p6 + 12) = {-4.017220926874316e-06, 1.2363734711837e-05, 2e-07};
Point(p6 + 13) = {-5.901876496614108e-06, 1.158308481444878e-05, 2e-07};
Point(p6 + 14) = {-7.641208279802149e-06, 1.051722092687432e-05, 2e-07};
Point(p6 + 15) = {-9.192388155425117e-06, 9.192388155425119e-06, 2e-07};
Point(p6 + 16) = {-1.051722092687432e-05, 7.641208279802153e-06, 2e-07};
Point(p6 + 17) = {-1.158308481444878e-05, 5.90187649661411e-06, 2e-07};
Point(p6 + 18) = {-1.2363734711837e-05, 4.017220926874318e-06, 2e-07};
Point(p6 + 19) = {-1.283994842773679e-05, 2.033648045523003e-06, 2e-07};
Point(p6 + 20) = {-1.3e-05, 1.592040838891559e-21, 2e-07};
Point(p6 + 21) = {-1.283994842773679e-05, -2.033648045523e-06, 2e-07};
Point(p6 + 22) = {-1.2363734711837e-05, -4.017220926874321e-06, 2e-07};
Point(p6 + 23) = {-1.158308481444879e-05, -5.901876496614102e-06, 2e-07};
Point(p6 + 24) = {-1.051722092687432e-05, -7.641208279802149e-06, 2e-07};
Point(p6 + 25) = {-9.192388155425121e-06, -9.192388155425117e-06, 2e-07};
Point(p6 + 26) = {-7.641208279802153e-06, -1.051722092687432e-05, 2e-07};
Point(p6 + 27) = {-5.90187649661411e-06, -1.158308481444878e-05, 2e-07};
Point(p6 + 28) = {-4.017220926874319e-06, -1.2363734711837e-05, 2e-07};
Point(p6 + 29) = {-2.033648045523003e-06, -1.283994842773679e-05, 2e-07};
Point(p6 + 30) = {-2.388061258337339e-21, -1.3e-05, 2e-07};
Point(p6 + 31) = {2.033648045522999e-06, -1.283994842773679e-05, 2e-07};
Point(p6 + 32) = {4.017220926874314e-06, -1.2363734711837e-05, 2e-07};
Point(p6 + 33) = {5.901876496614107e-06, -1.158308481444878e-05, 2e-07};
Point(p6 + 34) = {7.641208279802148e-06, -1.051722092687432e-05, 2e-07};
Point(p6 + 35) = {9.192388155425115e-06, -9.192388155425121e-06, 2e-07};
Point(p6 + 36) = {1.051722092687432e-05, -7.641208279802154e-06, 2e-07};
Point(p6 + 37) = {1.158308481444878e-05, -5.901876496614111e-06, 2e-07};
Point(p6 + 38) = {1.2363734711837e-05, -4.01722092687432e-06, 2e-07};
Point(p6 + 39) = {1.283994842773679e-05, -2.033648045523005e-06, 2e-07};
Spline(6) = {4, p6 + 1, p6 + 2, p6 + 3, p6 + 4, p6 + 5, p6 + 6, p6 + 7, p6 + 8, p6 + 9, p6 + 10, p6 + 11, p6 + 12, p6 + 13, p6 + 14, p6 + 15, p6 + 16, p6 + 17, p6 + 18, p6 + 19, p6 + 20, p6 + 21, p6 + 22, p6 + 23, p6 + 24, p6 + 25, p6 + 26, p6 + 27, p6 + 28, p6 + 29, p6 + 30, p6 + 31, p6 + 32, p6 + 33, p6 + 34, p6 + 35, p6 + 36, p6 + 37, p6 + 38, p6 + 39, 4};
Curve Loop(1) = {1, -2};
Plane Surface(1) = {1};
Curve Loop(2) = {3, 4, -3, -1};
Surface(2) = {2};
Curve Loop(3) = {5, 6, -5, -2};
Surface(3) = {3};
Curve Loop(4) = {4, -6};
Plane Surface(4) = {4};
Curve Loop(5) = {3, 4, -3, -1};
Surface(5) = {5};
Curve Loop(6) = {5, 6, -5, -2};
Surface(6) = {6};
Surface Loop(1) = {2, 3, 1, 4};
Volume(1) = {1};
Physical Surface("FieldPlane0") = {2};
